<?xml version="1.0" encoding="UTF-8"?>
<svg width="162px" height="37px" viewBox="0 0 162 37" version="1.1" xmlns="http://www.w3.org/2000/svg" xmlns:xlink="http://www.w3.org/1999/xlink">
    <title>Logo</title>
    <g id="Page-1" stroke="none" stroke-width="1" fill="none" fill-rule="evenodd">
        <g id="Charger_detail" transform="translate(-1038.000000, -14.000000)" fill="#FFFFFF" fill-rule="nonzero">
            <g id="Logo" transform="translate(1038.000000, 14.000000)">
                <polygon id="Path" points="156 14 158 14 158 14.35 157.16 14.35 157.16 17 156.84 17 156.84 14.35 156 14.35"></polygon>
                <polygon id="Path" points="160.421053 17 159.421053 14.7 159.421053 17 159 17 159 14 159.473684 14 160.526316 16.5 161.578947 14 162 14 162 17 161.631579 17 161.631579 14.7 160.631579 17"></polygon>
                <path d="M153,8.7106383 L153,14.093617 L148.432692,14.093617 L148.432692,21.3361702 C148.432692,22.2170213 148.048077,23 146.942308,23 C145.836538,23 145.451923,22.2170213 145.451923,21.3361702 L145.451923,14.093617 L140.740385,14.093617 L140.740385,21.3361702 C140.740385,22.2170213 140.355769,23 139.25,23 C138.144231,23 137.759615,22.2170213 137.759615,21.3361702 L137.759615,14.093617 L133,14.093617 C133,8.51489362 133.048077,10.2276596 133.048077,8.7106383 C133.048077,2.83829787 138.144231,0 143.048077,0 C147.951923,0 153,2.7893617 153,8.7106383 Z" id="Path"></path>
                <path d="M147.134615,28.9711538 C145.573213,28.9031417 144.110347,28.1891241 143.096154,27 L143.048077,27 C142.033883,28.1891241 140.571018,28.9031417 139.009615,28.9711538 C137.234047,28.994154 135.528294,28.2805227 134.298077,27 L133,27 C133,32.5228475 137.477153,37 143,37 C148.522847,37 153,32.5228475 153,27 L151.75,27 C150.569619,28.2944735 148.885948,29.0135415 147.134615,28.9711538 L147.134615,28.9711538 Z" id="Path"></path>
                <path d="M0,14 L4.92111369,14 L4.92111369,22.5227273 C4.92111369,23.4480519 5.31090487,24.2272727 6.48027842,24.2272727 C7.64965197,24.2272727 8.03944316,23.4480519 8.03944316,22.5227273 L8.03944316,14 L12.9605568,14 L12.9605568,22.5227273 C12.9605568,23.4480519 13.350348,24.2272727 14.5197216,24.2272727 C15.6890951,24.2272727 16.0788863,23.4480519 16.0788863,22.5227273 L16.0788863,14 L21,14 L21,23.3506494 C21,26.8084416 18.0278422,29 14.7633411,29 C13.1214239,28.9178791 11.5868466,28.1597616 10.5243619,26.9058442 C9.46187732,28.1597616 7.92730002,28.9178791 6.28538283,29 C3.02088167,29 0.0487238979,26.8084416 0.0487238979,23.3506494 L0.0487238979,14 L0,14 Z" id="Path"></path>
                <path d="M40,29.5000487 L34.8028571,29.5000487 L34.8028571,27.8502092 L34.7542857,27.8502092 C33.8314286,29.3500632 32.0342857,30 30.3342857,30 C26.0114286,30 23,26.30036 23,22.0007784 C23,17.7011968 25.9628571,14.0015568 30.2857143,14.0015568 C31.9920276,13.9621881 33.6342089,14.6710304 34.8028571,15.9513671 L34.8028571,14.5015082 L39.9514286,14.5015082 L39.9514286,29.5000487 L40,29.5000487 Z M28.3428571,22.0007784 C28.2963978,22.9118358 28.6311659,23.7997645 29.2625222,24.4400701 C29.8938785,25.0803757 30.7613864,25.4117648 31.6457143,25.3504525 C32.5300422,25.4117648 33.3975501,25.0803757 34.0289064,24.4400701 C34.6602627,23.7997645 34.9950308,22.9118358 34.9485714,22.0007784 C34.9485714,20.123193 33.4698319,18.6011092 31.6457143,18.6011092 C29.8215967,18.6011092 28.3428571,20.123193 28.3428571,22.0007784" id="Shape"></path>
                <rect id="Rectangle" x="44" y="5" width="5" height="24"></rect>
                <rect id="Rectangle" x="52" y="5" width="5" height="24"></rect>
                <path d="M61,5 L66.1633238,5 L66.1633238,15.8080808 C67.3353206,14.5146855 68.9822073,13.7986135 70.6934097,13.8383838 C75.0286533,13.8383838 78,17.5757576 78,21.9191919 C78,26.2626263 74.9799427,30 70.6446991,30 C68.9398281,30 67.1862464,29.3434343 66.2120344,27.8282828 L66.1633238,27.8282828 L66.1633238,29.4949495 L61,29.4949495 L61,5 Z M66.017192,21.9191919 C66.017192,23.8159273 67.5001686,25.3535351 69.3295129,25.3535351 C71.1588571,25.3535351 72.6418338,23.8159273 72.6418338,21.9191919 C72.6418338,20.0224565 71.1588571,18.4848487 69.3295129,18.4848487 C67.5001686,18.4848487 66.017192,20.0224565 66.017192,21.9191919" id="Shape"></path>
                <path d="M97,22 C97,27.1 92.8232044,30 88,30 C83.1767956,30 79,27.15 79,22 C79,16.85 83.1767956,14 88,14 C92.8232044,14 97,16.9 97,22 M84.6187845,22 C84.6187845,23.8777681 86.1326063,25.4 88,25.4 C89.8673937,25.4 91.3812155,23.8777681 91.3812155,22 C91.3812155,20.1222319 89.8673937,18.6 88,18.6 C86.1326063,18.6 84.6187845,20.1222319 84.6187845,22" id="Shape"></path>
                <polygon id="Path" points="97.3579677 14 103.905312 14 106.475751 17.1 109.094688 14 115.787529 14 109.773672 20.85 117 29 110.258661 29 106.475751 24.55 102.741339 29 96 29 103.226328 20.85"></polygon>
            </g>
        </g>
    </g>
</svg>