<svg width="41px" height="76px" viewBox="0 0 41 76" version="1.1" xmlns="http://www.w3.org/2000/svg" xmlns:xlink="http://www.w3.org/1999/xlink">
    <!-- Generator: Sketch 51.2 (57519) - http://www.bohemiancoding.com/sketch -->
    <title>Logo</title>
    <desc>Created with Sketch.</desc>
    <defs></defs>
    <g id="Loading" stroke="none" stroke-width="1" fill="none" fill-rule="evenodd">
        <g id="Login---Sin-rellenar" transform="translate(-167.000000, -295.000000)" fill="#FFFFFE">
            <g id="Logo" transform="translate(167.000000, 295.000000)">
                <path d="M41,17.8032273 C41,5.7054403 30.5442137,0 20.4983732,0 C10.4471102,0 0.0607327073,5.77586445 0.0607327073,17.7848087 C0.0607327073,20.9051406 0,17.324343 0,28.7612264 L9.78447295,28.7612264 L9.78447295,43.5882204 C9.78447295,45.4149147 10.565322,47 12.8438831,47 C15.1235286,47 15.9032932,45.4149147 15.9032932,43.5882204 L15.9032932,28.7612264 L25.503399,28.7612264 L25.503399,43.5882204 C25.503399,45.4149147 26.2864171,47 28.5671472,47 C30.8446237,47 31.6265573,45.4149147 31.6265573,43.5882204 L31.6265573,28.7612264 L40.9945774,28.7612264 C40.9945774,18.1477639 41,22.3786307 41,17.8032273" id="Fill-6"></path>
                <path d="M28.8572751,59.1479863 C25.8093915,59.1479863 22.7040212,57.4422416 20.604127,55 L20.5477249,55 C18.4489153,57.4422416 15.343545,59.1479863 12.2945767,59.1479863 C8.52756614,59.1479863 4.96772487,57.6422104 2.66933862,55 L0,55 C0,66.5970965 9.17727513,76 20.5010847,76 C31.8238095,76 41,66.5970965 41,55 L38.4835979,55 C36.1852116,57.6422104 32.6253704,59.1479863 28.8572751,59.1479863" id="Fill-8"></path>
            </g>
        </g>
    </g>
</svg>
